<svg width="515" height="257" viewBox="0 0 515 257" fill="none" xmlns="http://www.w3.org/2000/svg">
<path d="M515 255.964L460.217 220.455C460.217 220.455 382.663 127.794 357.227 113.188C331.79 98.582 292.905 94.6936 292.905 94.6936C292.757 94.5457 287.984 90.225 292.461 94.2498C296.939 98.2746 278.839 82.7093 272.325 76.3473C271.584 75.6075 270.696 74.7197 269.956 73.832C269.511 73.3882 269.215 72.9443 268.919 72.3525C268.771 72.2045 268.771 72.0566 268.623 71.9086C268.475 71.7607 268.475 71.4647 268.475 71.3168V71.1688C268.475 71.1688 268.475 71.0209 268.327 71.0209C267.735 70.577 266.698 70.1331 265.662 69.8372C264.625 69.5413 263.589 69.2454 262.404 68.9495C260.183 68.3577 258.11 67.9138 255.889 67.47C254.853 67.1741 253.669 66.8781 252.632 66.5822C252.04 66.4343 251.596 66.2863 251.003 65.9904C250.707 65.8425 250.411 65.6945 250.115 65.5465C249.819 65.3986 249.523 65.2506 249.227 64.8068C249.079 64.8068 249.079 64.8068 248.931 64.6588L247.894 64.5109C247.302 64.3629 246.413 64.067 245.821 63.3272L245.673 63.1793C245.081 62.5875 244.933 61.9956 244.933 61.4038C244.785 60.9599 244.785 60.5161 244.637 60.0722C243.896 59.0365 243.304 57.8529 242.416 57.1131C241.675 56.3734 240.343 56.0774 239.01 55.4856C238.418 55.1897 237.678 54.8938 237.086 54.5979C236.493 54.302 235.753 53.8581 235.161 53.4143C233.976 52.3786 233.236 51.1949 232.644 50.0113C231.903 48.8277 231.311 47.644 230.423 46.7563C229.534 45.8686 228.498 45.1288 227.313 44.9808C226.129 44.8329 224.944 45.1288 223.612 45.5727C222.427 46.0165 221.095 46.6083 219.614 46.7563C218.133 46.9043 216.653 46.4604 215.468 45.4247C214.284 44.537 213.543 43.2054 212.803 42.1697C212.063 41.134 211.026 40.2463 209.99 39.6545C208.805 39.0627 207.621 38.6188 206.288 38.6188C203.771 38.4708 200.958 39.5065 198.145 39.0627C196.812 38.9147 195.332 38.4708 194.295 37.4352C193.407 36.2515 192.815 35.2158 191.778 34.1801C191.038 33.2924 190.149 32.5526 189.113 31.9608C188.077 31.369 186.892 31.369 185.856 31.517C184.671 31.6649 183.635 31.9608 182.45 32.2567C181.266 32.5526 180.229 32.8486 179.045 33.1445L179.637 34.3281C179.637 34.4761 179.637 34.624 179.637 34.772C178.008 31.6649 176.232 28.5579 174.603 25.8947C173.418 24.2672 172.086 20.8642 170.161 19.9765C167.94 18.7928 167.052 20.2724 165.423 19.9765C162.314 19.3847 164.238 20.5683 162.018 17.4613C161.129 16.2776 160.833 14.6501 159.797 13.0226C156.391 6.36465 152.838 -2.66059 143.806 0.742367C129.147 6.5126 120.116 32.7006 112.564 47.644C112.268 47.644 111.972 47.644 111.676 47.644C111.38 47.644 111.084 47.644 110.788 47.792C110.64 47.792 110.492 47.792 110.343 47.9399H110.047H109.899C108.715 48.3838 108.123 49.4195 107.234 50.7511C106.938 51.047 106.642 51.4908 106.198 51.7868C105.902 51.9347 105.754 52.0827 105.457 52.2306C105.309 52.2306 105.013 52.3786 104.865 52.3786C104.421 52.5265 103.977 52.5265 103.533 52.5265C102.94 52.5265 102.496 52.3786 102.052 52.0827C101.312 51.6388 101.015 51.6388 100.423 51.6388C99.831 51.6388 99.2387 51.6388 98.6465 51.9347C97.462 52.2306 96.5736 53.1184 95.8333 54.154C94.9449 55.1897 94.2046 56.6693 92.4278 57.557C91.9836 57.8529 91.5395 58.0009 90.9472 58.0009C90.7991 58.0009 90.7991 58.0009 90.503 58.0009H90.2069C90.0588 58.0009 89.9108 58.0009 89.7627 58.0009L89.3185 57.8529C88.2821 57.557 87.5417 56.9652 86.9495 56.5213C84.4324 54.302 82.9518 51.6388 81.3231 49.4195L81.027 49.1236L80.7308 48.8277L79.9905 48.0879L78.5099 46.4604C77.4735 45.4247 76.437 44.389 75.4006 43.6492C73.3277 41.8738 70.9587 40.9861 68.4416 41.4299C67.8493 41.5779 67.2571 41.7258 66.6648 41.8738L66.2207 42.0217H66.0726L65.6284 42.1697L65.3323 42.3177C65.1842 42.4656 65.0362 42.4656 65.0362 42.6136C64.1478 43.3533 63.2594 44.389 62.6671 45.5727C61.1865 47.9399 60.1501 50.6031 59.2617 53.2663C57.3369 58.5927 55.8562 64.3629 54.3756 69.9852L52.1547 78.4186C51.8585 79.6022 51.5624 80.6379 51.2663 81.8216C53.9314 79.4543 56.5966 77.3829 59.4098 75.1636C61.6307 73.5361 63.7036 72.0566 66.0726 70.725C67.2571 70.1331 68.5897 69.5413 69.7742 69.0975C71.1067 68.6536 72.4393 68.3577 73.9199 68.3577C75.4006 68.3577 77.0293 68.6536 78.2138 69.5413C79.3983 70.4291 80.2867 71.4647 81.175 72.5004C82.8037 74.5718 84.4324 76.6432 86.5053 77.9747C87.5417 78.7145 88.7263 78.8625 89.9108 78.5666C91.0953 78.2707 92.4278 77.8268 93.7604 77.5309C96.2775 76.9391 98.7945 76.6432 101.46 76.6432C105.161 76.9391 108.863 77.8268 112.861 79.3064C115.97 80.49 119.82 81.2298 122.929 82.4134C126.334 83.597 128.851 87.1479 132.405 87.4439C137.143 87.7398 139.068 83.0052 143.362 82.7093C148.1 82.4134 150.617 86.852 152.838 90.255C156.539 96.913 158.76 105.05 164.535 110.081C171.197 115.703 180.822 117.627 188.373 122.065C193.555 125.468 197.849 130.499 202.587 134.641C192.222 126.356 176.232 127.244 171.049 123.989C165.719 120.586 149.728 103.571 134.626 101.795C119.523 100.02 106.79 101.795 106.79 101.795L105.457 104.755C112.712 104.755 120.264 104.459 127.075 104.755C126.778 107.418 126.63 109.933 126.482 112.596C126.482 112.448 126.482 112.3 126.482 112.3C126.334 111.708 126.334 111.117 126.038 110.377C125.89 110.081 125.742 109.637 125.298 109.193C124.854 108.749 124.261 108.453 123.669 108.305C122.485 108.158 121.744 108.453 121.152 108.601C120.56 108.897 119.968 109.193 119.375 109.489C118.339 110.229 117.451 111.117 116.562 112.152C117.895 112.152 119.227 112.004 120.264 111.708L121.892 111.413C122.337 111.265 122.929 111.265 122.929 111.265C122.929 111.265 123.077 111.413 123.225 111.56C123.521 111.856 123.817 112.448 124.113 113.04C124.706 113.928 125.298 114.963 126.334 115.703C126.186 117.627 126.186 119.402 126.038 121.326C126.038 121.178 125.89 121.03 125.89 120.882C125.446 119.846 124.706 118.958 124.113 118.07C122.781 116.443 121.152 114.963 119.523 113.632L118.339 112.744L117.451 113.78C117.006 114.372 116.562 115.111 116.266 115.999C115.97 116.739 115.97 117.627 116.118 118.514C116.71 117.627 117.451 117.035 118.043 116.443C119.079 117.923 120.412 119.106 121.596 120.29C122.337 121.03 123.225 121.621 123.965 122.361C124.558 122.805 125.15 123.249 125.742 123.841C125.742 125.764 125.594 127.836 125.594 129.759C125.15 128.575 124.558 127.244 123.965 126.208C122.633 123.841 121.004 121.621 119.375 119.698L118.191 118.366L117.451 119.402C116.71 120.29 116.266 121.178 115.822 122.065C115.378 122.953 114.933 123.841 114.341 124.728C115.378 124.433 116.266 123.693 117.006 123.101C117.302 122.805 117.747 122.509 118.043 122.213C119.079 124.137 120.412 125.912 121.596 127.688C122.337 128.723 123.225 129.759 123.965 130.795C124.409 131.238 124.706 131.83 125.15 132.422C125.298 132.718 125.446 132.866 125.594 133.162C125.446 140.116 125.446 147.07 125.298 153.876C111.676 154.171 95.093 151.952 81.6192 154.171C78.658 149.437 79.9905 148.549 72.2912 148.549C67.5532 148.549 62.9633 149.141 58.2253 149.733C51.8585 150.325 49.7856 151.656 45.4918 147.809C42.0864 144.702 43.8631 140.264 37.4964 139.672C34.9793 139.228 31.2778 140.264 28.1684 141.003H23.7265C29.0568 135.677 34.091 130.203 39.1251 124.728C41.9383 121.621 44.7515 118.366 47.5647 115.259C50.3779 112.152 53.043 108.897 56.0043 105.79C53.6353 107.566 51.5624 109.489 49.3415 111.56C49.3415 111.117 49.4895 110.821 49.6376 110.377C49.7856 110.081 49.7857 109.637 49.9337 109.341C50.0818 108.749 50.2298 108.158 50.3779 107.714L50.9701 106.086L48.8973 105.938C47.8608 105.79 46.9725 105.938 46.0841 106.086C45.6399 106.086 45.1957 106.234 44.7515 106.382C44.3073 106.53 43.8631 106.53 43.1228 106.678C43.2709 107.27 43.7151 107.714 44.1593 108.01C44.6034 108.305 45.0476 108.601 45.6399 108.749L44.6034 108.897C44.1593 108.897 43.567 108.897 42.9747 109.193C42.6786 109.341 42.3825 109.341 42.0864 109.489C41.7902 109.637 41.4941 109.785 41.198 110.081C41.4941 110.377 41.7902 110.673 41.9383 110.821C42.2344 110.969 42.3825 111.265 42.6786 111.413C42.8267 111.413 42.9747 111.56 43.1228 111.56C43.1228 111.856 43.2709 112.152 43.4189 112.596C43.567 112.892 43.7151 113.336 44.0112 113.632C44.3073 113.928 44.4554 114.224 44.8996 114.52C45.1957 114.076 45.3438 113.78 45.6399 113.484C45.7879 113.188 45.936 112.744 46.0841 112.448C46.2321 111.708 46.2321 111.117 46.2321 110.525L46.0841 109.045C46.5283 109.193 46.9725 109.193 47.2686 109.193C47.2686 109.489 47.4166 109.637 47.5647 109.933C47.7128 110.377 48.0089 110.673 48.305 110.969C48.6011 111.265 48.8973 111.56 49.3415 111.708C48.4531 112.596 47.4166 113.632 46.5283 114.52C43.567 117.479 40.6057 120.586 37.7925 123.841C32.7584 129.463 27.8723 135.381 23.2824 141.447H-1V257H298.087V256.26H515V255.964ZM148.988 5.47692C144.842 13.3185 143.954 22.4917 142.325 30.9251C141.141 36.5474 136.995 40.0983 135.662 45.4247C134.478 50.1593 135.07 55.4856 134.034 60.5161C130.332 55.1897 125.594 52.3786 121.448 47.3481C117.006 41.7258 123.077 37.2872 125.594 31.9608C128.407 25.7467 132.553 21.3081 137.143 16.2776C140.252 12.8747 144.694 7.54829 148.84 5.32896V5.47692H148.988ZM219.318 152.988C219.466 152.396 219.762 151.804 220.058 151.36C220.354 150.916 220.651 150.325 221.243 149.881C221.687 149.289 222.279 148.845 223.168 148.253C223.908 148.993 224.056 150.029 224.056 150.916C224.056 151.804 223.76 152.692 223.464 153.432C223.02 154.171 222.427 154.911 221.539 155.355C220.799 155.799 219.762 155.947 218.726 155.651C219.022 154.319 219.17 153.58 219.318 152.988ZM217.985 149.881C217.245 150.473 216.357 150.916 215.32 151.064C214.284 151.212 213.247 151.212 212.359 150.473C213.099 149.585 213.543 148.993 214.136 148.401C214.58 147.809 215.172 147.366 215.764 146.922C216.357 146.478 216.949 146.034 217.689 145.738C218.43 145.442 219.17 144.998 220.354 144.85C220.502 146.034 220.206 146.922 219.91 147.809C219.318 148.549 218.726 149.289 217.985 149.881ZM215.32 125.024C214.876 124.581 214.58 123.989 214.284 123.545L213.543 122.361C211.915 122.213 210.286 121.917 208.805 121.178C210.582 121.03 212.359 120.734 214.136 120.586H214.432L214.876 121.03C215.32 121.473 215.764 121.917 216.209 122.361C216.653 122.805 216.949 123.249 217.393 123.841C218.133 124.728 218.874 125.616 219.762 126.356L220.65 127.096L220.058 127.983C219.318 128.871 218.578 129.315 217.837 129.611C217.097 130.055 216.357 130.203 215.616 130.499C214.876 130.647 214.136 130.943 213.395 131.091C212.655 131.386 211.915 131.386 211.323 131.978C211.323 131.534 211.619 131.238 211.915 130.943C212.211 130.647 212.507 130.351 212.803 130.203C213.395 129.759 214.136 129.315 214.876 129.019C215.616 128.723 216.209 128.279 216.801 127.835C216.949 127.688 217.245 127.54 217.393 127.392C216.357 126.356 215.764 125.616 215.32 125.024ZM225.537 113.188C225.24 110.821 224.352 108.601 222.427 106.826C223.612 107.27 224.796 108.158 225.537 109.193C226.425 110.229 227.017 111.56 227.313 112.892C228.054 115.555 228.054 118.218 227.906 120.734C227.609 123.397 226.869 125.912 225.981 128.279C224.944 130.647 223.76 133.014 221.835 134.789C222.871 132.422 223.464 130.055 224.056 127.688C224.648 125.32 225.092 122.953 225.389 120.438C225.833 118.07 225.833 115.555 225.537 113.188ZM231.607 127.688C231.607 125.616 231.459 123.693 231.459 121.621C231.607 119.55 231.755 117.479 232.496 115.407C232.792 117.479 233.088 119.402 233.384 121.473C233.68 123.545 233.976 125.468 233.976 127.54C234.124 129.611 233.976 131.682 233.68 133.754C233.236 135.825 232.496 138.044 231.015 139.524C231.607 137.453 231.755 135.529 231.755 133.606C231.755 131.682 231.607 129.611 231.607 127.688ZM194.295 66.4343C195.628 69.8372 196.664 73.2402 197.553 76.4952C197.997 78.5666 198.145 79.0104 198.737 80.9338C199.033 81.8216 199.329 82.8573 199.774 83.597C200.218 84.4848 200.81 85.0766 201.55 85.8163C203.031 87.1479 204.66 88.0357 206.436 89.0714C208.213 89.9591 209.99 90.9948 211.767 92.1784L213.099 93.2141C216.209 95.8773 218.578 96.913 222.279 98.8364C224.204 99.8721 225.981 100.76 227.906 101.943C228.794 102.535 229.682 102.979 230.571 103.571L233.236 105.346C236.641 107.418 240.639 108.749 244.785 109.489C248.782 110.081 253.076 111.708 256.926 110.821C257.074 110.821 257.222 110.673 257.37 110.673C257.074 113.188 256.482 115.407 255.001 115.851C254.705 115.999 254.409 115.999 254.113 116.147C249.671 115.851 242.712 116.591 240.343 115.407C238.418 114.52 237.234 113.188 235.309 112.3C233.68 111.708 231.607 112.596 230.275 111.117C227.461 108.01 230.275 104.903 224.944 102.683C220.206 100.464 219.022 99.8721 215.172 96.4691C212.359 93.9539 207.621 91.4386 204.512 90.255C200.81 89.3673 197.849 90.255 196.072 85.5204C195.184 82.4134 196.368 79.3063 195.776 76.0513C195.332 73.5361 192.963 65.8425 189.853 61.9956C190.149 62.2915 190.594 62.4395 191.038 62.7354C192.074 63.4752 193.407 64.8068 194.295 66.4343ZM186.004 59.3325H186.152L186.3 59.4804C186.3 59.4804 186.448 59.6284 186.596 59.6284C186.004 59.4804 185.411 59.6284 184.819 60.0722C183.931 55.9295 183.783 51.7868 183.487 47.792C184.671 51.4908 185.856 55.3377 185.856 59.4804L186.004 59.3325ZM169.421 31.517V31.8129C169.421 39.6545 176.083 43.5013 177.564 50.6031C178.453 55.0418 176.676 58.1488 175.343 62.5875C174.455 66.2863 174.455 70.1331 174.455 74.2759C171.642 72.3525 166.904 68.0618 166.311 64.215C166.015 60.812 168.532 55.4856 169.125 51.9347C170.013 45.2768 166.607 37.1392 169.421 31.517ZM187.484 104.459C186.152 105.05 184.671 105.494 183.339 105.79C181.858 106.086 180.525 106.234 179.045 106.382C177.564 106.53 176.232 106.53 174.751 106.382C173.27 106.234 171.938 105.938 170.753 105.05C172.086 105.494 173.418 105.494 174.899 105.494C176.232 105.346 177.564 105.198 179.045 104.903C180.377 104.607 181.71 104.311 183.042 103.867C184.079 103.571 184.967 103.127 186.004 102.831C185.708 101.795 185.411 100.76 184.967 99.8721C184.523 98.5405 183.931 97.3568 183.339 96.0252C182.746 94.8416 182.154 93.51 181.414 92.3264C181.118 91.7346 180.673 91.1427 180.377 90.6989C180.229 90.4029 179.933 90.255 179.785 90.107C179.637 89.9591 179.637 89.9591 179.489 89.8111L179.341 89.6632L179.193 89.5152C178.304 89.0714 176.972 89.0714 175.639 89.2193C174.307 89.3673 172.974 89.8111 171.642 90.255C170.309 90.6989 168.976 91.1427 167.496 91.4386C166.163 91.7345 164.683 92.0305 163.202 92.0305C166.015 91.4386 168.384 89.9591 171.049 88.7754C172.382 88.1836 173.714 87.5918 175.195 87.2959C176.676 87 178.304 86.7041 180.081 87.4439L180.377 87.5918C180.377 87.5918 180.377 87.5918 180.525 87.7398H180.673C180.822 87.7398 181.118 88.0357 181.266 88.1836C181.562 88.4795 181.858 88.7754 182.154 89.0714C182.746 89.6632 183.042 90.255 183.487 90.9948C184.227 92.3264 184.967 93.51 185.56 94.8416C186.152 96.1732 186.744 97.5048 187.188 98.8364C187.632 100.168 188.077 101.648 188.225 103.275L188.373 104.015L187.484 104.459ZM186.004 88.3316C187.188 88.0357 188.373 87.7398 189.409 87.2959C190.001 87.1479 190.446 86.852 191.186 86.7041C191.482 86.5561 191.926 86.5561 192.37 86.7041C192.815 86.7041 193.111 87 193.555 87.1479C194.739 87.8877 195.48 88.7754 196.368 89.6632L198.737 92.4743C200.366 94.2498 201.846 96.1732 203.327 98.2445C204.808 100.316 205.992 102.387 207.029 104.607L207.473 105.642L206.584 105.938C204.956 106.53 203.179 106.826 201.402 106.826C199.626 106.826 197.997 106.53 196.368 105.938C197.997 105.938 199.626 105.79 201.254 105.494C202.439 105.198 203.623 104.903 204.66 104.459C203.623 102.831 202.587 101.056 201.402 99.4282C199.922 97.5048 198.441 95.7293 196.96 93.8059L194.739 90.9948C193.999 90.107 193.259 89.0714 192.518 88.3316C192.074 88.0357 191.926 87.8877 191.334 87.8877C190.742 87.8877 190.149 88.0357 189.557 88.0357C188.521 88.3316 187.188 88.4795 186.004 88.3316ZM192.667 115.851C191.778 115.999 190.89 116.147 190.15 115.851C190.89 115.407 191.482 114.963 192.074 114.52C192.667 114.076 193.259 113.632 193.999 113.04C195.332 112.152 196.812 111.117 198.737 110.969L199.774 110.821L200.07 111.708C200.218 112.448 200.514 113.336 200.81 114.076C200.958 114.963 201.106 115.851 200.958 116.739C200.07 115.555 199.329 114.668 198.589 113.484C197.553 113.928 196.516 114.52 195.332 114.963C194.295 115.407 193.555 115.703 192.667 115.851ZM199.477 121.178C198.737 121.178 197.997 121.178 197.257 120.882L199.033 119.846C199.626 119.55 200.218 119.106 200.81 118.81C201.995 118.218 203.475 117.627 205.104 117.775H205.992L206.288 118.662C206.584 119.698 206.733 120.586 207.029 121.621L207.325 123.101C207.473 123.545 207.473 124.137 207.621 124.58C207.029 124.433 206.584 123.989 206.288 123.545C205.844 123.101 205.548 122.657 205.252 122.213C204.808 121.621 204.512 120.882 204.215 120.29C203.327 120.438 202.439 120.586 201.402 120.882C200.958 121.03 200.218 121.178 199.477 121.178ZM206.584 137.896C205.548 137.305 204.66 136.565 203.771 135.973L203.623 135.825C204.512 136.565 205.548 137.305 206.584 137.896ZM141.289 148.845C141.289 149.437 141.141 150.029 140.993 150.768C140.993 151.064 140.844 151.36 140.696 151.656C140.548 151.952 140.4 152.396 140.104 152.396C140.252 152.1 140.252 151.804 140.104 151.508C140.104 151.212 139.956 150.916 139.808 150.621C139.66 150.029 139.512 149.437 139.216 148.993C138.92 147.809 138.475 146.774 138.179 145.59C137.587 143.223 136.995 141.003 136.551 138.488C136.255 135.973 136.255 133.606 136.255 131.238C136.255 128.871 136.255 126.504 136.255 123.989C137.735 126.06 138.624 128.427 139.216 130.795C139.808 133.162 140.104 135.529 140.4 137.896C140.696 140.116 141.141 142.631 141.141 144.998C141.437 146.33 141.289 147.513 141.289 148.845ZM147.359 150.325C146.619 148.253 145.879 146.33 145.286 144.406C144.694 142.483 144.102 140.412 143.658 138.488C143.213 136.417 142.917 134.346 142.769 132.274C142.621 130.203 142.769 127.983 143.362 125.912C144.25 127.836 144.99 129.759 145.731 131.83C146.323 133.754 146.915 135.825 147.359 137.748C147.803 139.82 148.1 141.891 148.248 143.963C148.1 146.034 148.1 148.105 147.359 150.325ZM152.097 138.932C152.838 138.636 153.43 138.34 154.17 138.044C154.762 137.748 155.503 137.453 156.243 137.305C157.576 136.861 159.056 136.565 160.685 136.565H161.721L162.314 137.453C162.906 138.488 163.498 139.672 164.09 140.856C164.387 141.447 164.535 142.187 164.831 142.779C164.979 143.519 165.127 144.111 165.127 144.998C164.387 144.554 163.942 144.258 163.35 143.815C162.758 143.371 162.314 142.927 161.721 142.483C160.981 141.743 160.389 141.151 159.648 140.264C158.612 140.264 157.724 140.264 156.539 140.264C155.799 140.264 155.059 140.116 154.318 139.968C153.578 139.672 152.69 139.376 152.097 138.932ZM166.459 151.804C166.459 152.396 166.311 152.988 166.163 153.58C165.571 153.284 165.127 152.692 164.831 152.248C164.387 151.804 164.09 151.36 163.794 150.768C163.498 150.177 163.202 149.733 163.054 149.141C162.166 149.141 161.277 149.141 160.389 149.141C159.648 149.141 159.056 148.993 158.316 148.845C157.576 148.697 156.835 148.401 156.243 147.957C156.983 147.513 157.576 147.218 158.168 146.774C158.76 146.478 159.5 146.182 160.093 146.034C161.425 145.59 162.758 145.442 164.387 145.442H165.867L166.163 146.626C166.459 147.809 166.607 148.845 166.607 150.029C166.607 150.768 166.607 151.212 166.459 151.804ZM167.2 143.371C166.904 142.631 166.756 141.891 166.756 141.299C166.756 140.708 166.607 140.116 166.607 139.524C166.607 139.08 166.607 138.636 166.607 138.34C168.088 138.044 169.717 137.601 171.494 138.192C172.382 138.488 173.27 139.08 173.863 139.968C174.455 140.856 174.751 141.891 174.751 142.927V144.554H173.27C171.642 144.554 169.569 144.258 167.644 143.815L167.2 143.371ZM183.783 155.799C181.118 155.799 178.304 155.947 175.343 155.799H174.751L174.603 155.355C174.307 154.171 173.714 152.84 173.122 151.804C172.53 150.621 171.642 149.585 171.197 148.253L170.901 147.07C172.382 147.218 173.863 146.626 175.195 146.182C175.935 145.886 176.528 145.738 177.416 145.442C177.712 145.442 178.008 145.442 178.156 145.442H178.304H178.452C178.601 145.442 178.601 145.442 178.749 145.442C179.193 145.59 179.637 145.738 179.933 145.886C181.562 146.626 182.746 148.105 183.487 149.585C184.227 151.064 184.671 152.396 185.115 153.728L185.856 155.799H183.783ZM221.095 162.013C219.762 161.421 218.281 160.977 217.097 159.942C215.468 158.462 214.136 156.687 212.655 155.355C211.915 154.763 211.026 154.319 210.138 153.876C209.694 153.728 209.25 153.58 208.805 153.58L208.065 153.432L207.325 153.284C206.288 153.136 205.252 152.988 204.067 152.988C202.883 152.84 201.698 152.692 200.514 152.1C199.329 151.656 198.293 150.916 197.405 150.325C196.368 149.585 195.48 148.845 194.739 148.105C193.111 146.626 191.63 145.146 190.001 144.111C189.557 143.815 189.113 143.667 188.817 143.371C188.521 143.223 187.78 142.927 187.336 142.631C186.448 142.187 185.411 141.743 184.375 141.447C180.525 139.968 176.083 138.932 171.938 136.565C169.865 135.381 168.088 133.902 166.459 132.274C166.311 132.126 166.311 131.978 166.163 131.978C166.163 132.866 166.163 133.754 166.163 134.789C165.127 133.754 164.387 132.57 163.794 131.534C163.35 130.795 163.054 130.055 162.61 129.463C160.833 129.611 158.908 129.907 156.983 129.907C155.799 129.907 154.614 129.907 153.43 129.611C152.245 129.463 151.061 129.167 150.024 128.575C151.209 128.131 152.245 127.836 153.282 127.54C154.318 127.244 155.355 126.948 156.539 126.652C158.02 126.356 159.5 126.06 161.129 125.912C158.908 122.953 156.539 119.994 154.022 117.331C152.541 115.851 150.913 114.52 149.136 113.484C147.359 112.448 145.286 111.856 143.213 111.265C139.068 110.081 134.626 109.637 130.48 108.453C134.774 108.897 139.216 108.897 143.51 109.637C145.731 109.933 147.951 110.525 150.024 111.413C152.097 112.448 154.022 113.78 155.799 115.259C159.204 118.218 162.018 121.621 164.831 125.024C166.163 126.652 167.644 128.427 168.976 129.759C170.457 131.238 171.938 132.422 173.714 133.458C177.12 135.381 181.414 136.565 185.56 138.192C186.596 138.636 187.632 139.08 188.669 139.524C189.261 139.82 189.557 139.968 190.15 140.264C190.742 140.56 191.186 140.856 191.778 141.299C193.703 142.779 195.332 144.406 196.812 145.886C197.553 146.626 198.293 147.366 199.033 147.957C199.922 148.697 200.662 149.141 201.55 149.585C203.179 150.325 205.252 150.473 207.621 151.064L208.509 151.212L209.25 151.36C209.842 151.508 210.434 151.656 211.026 151.952C212.211 152.396 213.099 153.136 213.988 154.023C215.616 155.651 216.801 157.574 218.133 159.202C219.17 160.09 220.354 160.829 221.687 161.569C223.02 162.309 224.352 162.901 225.685 163.493C223.908 162.901 222.427 162.605 221.095 162.013ZM231.459 160.386C230.719 160.977 229.83 161.569 228.794 161.421C229.386 160.681 229.534 160.09 229.83 159.202C229.978 158.462 230.127 157.722 230.275 156.983C230.423 156.243 230.719 155.503 230.867 154.615C230.127 154.467 229.386 154.319 228.646 154.023C227.165 153.284 225.833 151.952 225.685 150.325C226.425 150.621 227.017 150.916 227.609 151.064C228.202 151.212 228.794 151.212 229.386 151.212C230.571 151.212 231.755 151.064 232.94 150.916L235.605 150.473L235.013 153.136C234.568 154.763 234.124 156.391 233.088 158.018C232.644 159.054 232.051 159.794 231.459 160.386Z" fill="#012665"/>
</svg>
